<svg xmlns="http://www.w3.org/2000/svg" xmlns:xlink="http://www.w3.org/1999/xlink" xml:lang="en" height="675.2pt" width="864.1999999999999pt" viewBox="-283.6 -301.6 864.1999999999999 675.2"><path d="M 0.0,-0.0 L 0.0,-135.0 L 198.0,-135.0 L 198.0,135.0 L 0.0,135.0 L 0.0,-0.0" style="stroke:black;fill:none;stroke-width:2.0;stroke-dasharray:-;stroke-linecap:round;stroke-linejoin:round;" /><path d="M -216.0,-64.8 L -216.0,-115.2 L -54.0,-115.2 L -54.0,-14.400000000000006 L -216.0,-14.400000000000006 L -216.0,-64.8" style="stroke:black;fill:none;stroke-width:2.0;stroke-dasharray:-;stroke-linecap:round;stroke-linejoin:round;" /><path d="M -54.0,-64.8 L -27.0,-64.8 L 0.0,-64.8" style="stroke:blue;fill:none;stroke-width:2.0;stroke-dasharray:-;stroke-linecap:round;stroke-linejoin:round;" /><path d="M -216.0,64.8 L -216.0,25.2 L -54.0,25.2 L -54.0,104.4 L -216.0,104.4 L -216.0,64.8" style="stroke:black;fill:none;stroke-width:2.0;stroke-dasharray:-;stroke-linecap:round;stroke-linejoin:round;" /><path d="M -54.0,64.8 L -27.0,64.8 L 0.0,64.8" style="stroke:purple;fill:none;stroke-width:2.0;stroke-dasharray:-;stroke-linecap:round;stroke-linejoin:round;" /><path d="M 414.0,-0.0 L 414.0,-54.0 L 576.0,-54.0 L 576.0,54.0 L 414.0,54.0 L 414.0,-0.0" style="stroke:black;fill:none;stroke-width:2.0;stroke-dasharray:-;stroke-linecap:round;stroke-linejoin:round;" /><path d="M 414.0,-0.0 L 306.0,-1.3226185430791413e-14 L 198.0,-2.6452370861582827e-14" style="stroke:orange;fill:none;stroke-width:2.0;stroke-dasharray:-;stroke-linecap:round;stroke-linejoin:round;" /><path d="M -144.0,-261.0 L -144.0,-297.0 L 0.0,-297.0 L 0.0,-225.0 L -144.0,-225.0 L -144.0,-261.0" style="stroke:black;fill:none;stroke-width:2.0;stroke-dasharray:-;stroke-linecap:round;stroke-linejoin:round;" /><path d="M -72.0,-225.0 L -72.00000000000001,-180.0 L -72.00000000000001,-135.0" style="stroke:gray;fill:none;stroke-width:2.0;stroke-dasharray:-;stroke-linecap:round;stroke-linejoin:round;" /><path d="M -90.0,324.0 L -90.0,279.0 L 90.0,279.0 L 90.0,369.0 L -90.0,369.0 L -90.0,324.0" style="stroke:black;fill:none;stroke-width:2.0;stroke-dasharray:-;stroke-linecap:round;stroke-linejoin:round;" /><path d="M 0.0,279.0 L 4.408728476930472e-15,207.0 L 8.817456953860943e-15,135.0" style="stroke:green;fill:none;stroke-width:2.0;stroke-dasharray:-;stroke-linecap:round;stroke-linejoin:round;" /><path d="M -279.0,210.6 L -279.0,178.20000000000002 L -153.0,178.20000000000002 L -153.0,243.0 L -279.0,243.0 L -279.0,210.6" style="stroke:red;fill:none;stroke-width:2.0;stroke-dasharray:-;stroke-linecap:round;stroke-linejoin:round;" /><path d="M -153.0,210.6 L -76.5,210.6 L 0.0,210.6" style="stroke:red;fill:none;stroke-width:2.0;stroke-dasharray:-;stroke-linecap:round;stroke-linejoin:round;" /><path d="M 0.0,210.6 L 2.3145824503884972e-15,172.79999999999998 L 4.6291649007769944e-15,135.0" style="stroke:red;fill:none;stroke-width:2.0;stroke-dasharray:-;stroke-linecap:round;stroke-linejoin:round;" /><path d="M 342.0,192.6 L 342.0,160.20000000000002 L 486.0,160.20000000000002 L 486.0,225.0 L 342.0,225.0 L 342.0,192.6" style="stroke:lightgray;fill:none;stroke-width:2.0;stroke-dasharray:-;stroke-linecap:round;stroke-linejoin:round;" /><text x="99.0" y="-38.5" dominant-baseline="central" fill="black" font-size="11" font-family="sans" text-anchor="middle"><tspan x="99.0" dy="11">ESP32 DevKit V1</tspan><tspan x="99.0" dy="11">30 pines</tspan><tspan x="99.0" dy="11" /><tspan x="99.0" dy="11">WiFi / ESP-NOW</tspan><tspan x="99.0" dy="11">Web Server</tspan><tspan x="99.0" dy="11">Grafana / InfluxDB</tspan></text><text x="-135.0" y="-86.8" dominant-baseline="central" fill="black" font-size="11" font-family="sans" text-anchor="middle"><tspan x="-135.0" dy="11">I2C Bus</tspan><tspan x="-135.0" dy="11">SCD30 (CO2)</tspan><tspan x="-135.0" dy="11">BME280 (T/H/P)</tspan></text><text x="-23.400000000000002" y="-90.80000000000001" dominant-baseline="central" fill="blue" font-size="8" font-family="sans" text-anchor="middle"><tspan x="-23.400000000000002" dy="8">SDA=21 SCL=22</tspan></text><text x="-135.0" y="48.3" dominant-baseline="central" fill="black" font-size="11" font-family="sans" text-anchor="middle"><tspan x="-135.0" dy="11">1-Wire</tspan><tspan x="-135.0" dy="11">DS18B20 x N</tspan></text><text x="-23.400000000000002" y="38.8" dominant-baseline="central" fill="purple" font-size="8" font-family="sans" text-anchor="middle"><tspan x="-23.400000000000002" dy="8">GPIO4 + 4.7kOhm</tspan></text><text x="495.0" y="-27.5" dominant-baseline="central" fill="black" font-size="11" font-family="sans" text-anchor="middle"><tspan x="495.0" dy="11">RS485 Modbus</tspan><tspan x="495.0" dy="11">MAX485</tspan><tspan x="495.0" dy="11">Sensor TH</tspan><tspan x="495.0" dy="11">Relay 2CH</tspan></text><text x="302.40000000000003" y="-18.8" dominant-baseline="central" fill="orange" font-size="8" font-family="sans" text-anchor="middle"><tspan x="302.40000000000003" dy="8">TX=17 RX=16 DE/RE=18</tspan></text><text x="-72.0" y="-272.0" dominant-baseline="central" fill="black" font-size="11" font-family="sans" text-anchor="middle"><tspan x="-72.0" dy="11">Grafana / InfluxDB</tspan></text><text x="-25.200000000000003" y="-184.4" dominant-baseline="central" fill="gray" font-size="8" font-family="sans" text-anchor="middle"><tspan x="-25.200000000000003" dy="8">WiFi / ESP-NOW</tspan></text><text x="0.0" y="302.0" dominant-baseline="central" fill="black" font-size="11" font-family="sans" text-anchor="middle"><tspan x="0.0" dy="11">ADC Suelo</tspan><tspan x="0.0" dy="11">Capacitivo (GPIO34)</tspan><tspan x="0.0" dy="11">HD38 (GPIO35)  !!</tspan></text><text x="39.599999999999994" y="195.4" dominant-baseline="central" fill="red" font-size="8" font-family="sans" text-anchor="middle"><tspan x="39.599999999999994" dy="8">!! Prot. GPIO35</tspan></text><text x="-216.0" y="194.1" dominant-baseline="central" fill="red" font-size="11" font-family="sans" text-anchor="middle"><tspan x="-216.0" dy="11">5V USB</tspan><tspan x="-216.0" dy="11">-&gt; 3.3V reg</tspan></text><text x="414.0" y="176.1" dominant-baseline="central" fill="lightgray" font-size="11" font-family="sans" text-anchor="middle"><tspan x="414.0" dy="11">GPIO Relays</tspan><tspan x="414.0" dy="11">(proxim.)</tspan></text></svg>