<svg xmlns="http://www.w3.org/2000/svg" xmlns:xlink="http://www.w3.org/1999/xlink" xml:lang="en" height="529.6pt" width="608.432pt" viewBox="-34.216 -231.60000000000002 608.432 529.6"><path d="M 0.0,-0.0 L 90.0,-0.0 L 90.0,-162.0 L 0.0,-162.0 L 0.0,-0.0" style="stroke:black;fill:none;stroke-width:2.0;stroke-dasharray:-;stroke-linecap:round;stroke-linejoin:round;" /><path d="M 90.0,-54.0 L 108.0,-54.0" style="stroke:black;fill:none;stroke-width:2.0;stroke-dasharray:-;stroke-linecap:round;stroke-linejoin:round;" /><path d="M 90.0,-108.0 L 108.0,-108.0" style="stroke:black;fill:none;stroke-width:2.0;stroke-dasharray:-;stroke-linecap:round;stroke-linejoin:round;" /><path d="M -18.0,-54.0 L -18.0,-68.39999999999999" style="stroke:black;fill:none;stroke-width:2.0;stroke-dasharray:-;stroke-linecap:round;stroke-linejoin:round;" /><path d="M -18.0,-68.39999999999999 L -24.75,-68.39999999999999" style="stroke:black;fill:none;stroke-width:2.0;stroke-dasharray:-;stroke-linecap:round;stroke-linejoin:round;" /><path d="M -18.0,-68.39999999999999 L -11.25,-68.39999999999999" style="stroke:black;fill:none;stroke-width:2.0;stroke-dasharray:-;stroke-linecap:round;stroke-linejoin:round;" /><path d="M -18.0,-108.0 L -18.0,-93.60000000000001 L -27.0,-93.60000000000001 L -9.0,-93.60000000000001 M -24.3,-89.28 L -11.700000000000001,-89.28 M -19.8,-84.96 L -16.2,-84.96" style="stroke:black;fill:none;stroke-width:2.0;stroke-dasharray:-;stroke-linecap:round;stroke-linejoin:round;" /><path d="M 450.0,-0.0 L 540.0,-0.0 L 540.0,-162.0 L 450.0,-162.0 L 450.0,-0.0" style="stroke:black;fill:none;stroke-width:2.0;stroke-dasharray:-;stroke-linecap:round;stroke-linejoin:round;" /><path d="M 450.0,-54.0 L 432.0,-54.0" style="stroke:black;fill:none;stroke-width:2.0;stroke-dasharray:-;stroke-linecap:round;stroke-linejoin:round;" /><path d="M 450.0,-108.0 L 432.0,-108.0" style="stroke:black;fill:none;stroke-width:2.0;stroke-dasharray:-;stroke-linecap:round;stroke-linejoin:round;" /><path d="M 540.0,-54.0 L 558.0,-54.0" style="stroke:black;fill:none;stroke-width:2.0;stroke-dasharray:-;stroke-linecap:round;stroke-linejoin:round;" /><path d="M 540.0,-108.0 L 558.0,-108.0" style="stroke:black;fill:none;stroke-width:2.0;stroke-dasharray:-;stroke-linecap:round;stroke-linejoin:round;" /><path d="M 558.0,-54.0 L 558.0,-68.39999999999999" style="stroke:black;fill:none;stroke-width:2.0;stroke-dasharray:-;stroke-linecap:round;stroke-linejoin:round;" /><path d="M 558.0,-68.39999999999999 L 551.25,-68.39999999999999" style="stroke:black;fill:none;stroke-width:2.0;stroke-dasharray:-;stroke-linecap:round;stroke-linejoin:round;" /><path d="M 558.0,-68.39999999999999 L 564.75,-68.39999999999999" style="stroke:black;fill:none;stroke-width:2.0;stroke-dasharray:-;stroke-linecap:round;stroke-linejoin:round;" /><path d="M 558.0,-108.0 L 558.0,-93.60000000000001 L 549.0,-93.60000000000001 L 567.0,-93.60000000000001 M 551.6999999999999,-89.28 L 564.3000000000001,-89.28 M 556.1999999999999,-84.96 L 559.8000000000001,-84.96" style="stroke:black;fill:none;stroke-width:2.0;stroke-dasharray:-;stroke-linecap:round;stroke-linejoin:round;" /><path d="M 108.0,-54.0 L 270.0,-54.0 L 432.0,-54.0" style="stroke:blue;fill:none;stroke-width:2.0;stroke-dasharray:-;stroke-linecap:round;stroke-linejoin:round;" /><path d="M 108.0,-108.0 L 270.0,-108.0 L 432.0,-108.0" style="stroke:green;fill:none;stroke-width:2.0;stroke-dasharray:-;stroke-linecap:round;stroke-linejoin:round;" /><path d="M 234.0,-54.0 L 234.0,-81.0 L 225.0,-84.0 L 243.0,-90.0 L 225.0,-96.0 L 243.0,-101.99999999999999 L 225.0,-108.0 L 243.0,-114.0 L 234.0,-117.0 L 234.0,-144.0" style="stroke:black;fill:none;stroke-width:2.0;stroke-dasharray:-;stroke-linecap:round;stroke-linejoin:round;" /><path d="M 234.0,-144.0 L 234.0,-158.4" style="stroke:black;fill:none;stroke-width:2.0;stroke-dasharray:-;stroke-linecap:round;stroke-linejoin:round;" /><path d="M 234.0,-158.4 L 227.25,-158.4" style="stroke:black;fill:none;stroke-width:2.0;stroke-dasharray:-;stroke-linecap:round;stroke-linejoin:round;" /><path d="M 234.0,-158.4 L 240.75,-158.4" style="stroke:black;fill:none;stroke-width:2.0;stroke-dasharray:-;stroke-linecap:round;stroke-linejoin:round;" /><path d="M 324.0,-108.0 L 324.0,-135.0 L 315.0,-138.0 L 333.0,-144.0 L 315.0,-149.99999999999997 L 333.0,-156.0 L 315.0,-162.0 L 333.0,-167.99999999999997 L 324.0,-171.0 L 324.0,-198.0" style="stroke:black;fill:none;stroke-width:2.0;stroke-dasharray:-;stroke-linecap:round;stroke-linejoin:round;" /><path d="M 324.0,-198.0 L 324.0,-212.4" style="stroke:black;fill:none;stroke-width:2.0;stroke-dasharray:-;stroke-linecap:round;stroke-linejoin:round;" /><path d="M 324.0,-212.4 L 317.25,-212.4" style="stroke:black;fill:none;stroke-width:2.0;stroke-dasharray:-;stroke-linecap:round;stroke-linejoin:round;" /><path d="M 324.0,-212.4 L 330.75,-212.4" style="stroke:black;fill:none;stroke-width:2.0;stroke-dasharray:-;stroke-linecap:round;stroke-linejoin:round;" /><path d="M 486.0,144.0 L 486.0,54.0 L 324.0,54.0 L 324.0,144.0 L 486.0,144.0" style="stroke:black;fill:none;stroke-width:2.0;stroke-dasharray:-;stroke-linecap:round;stroke-linejoin:round;" /><path d="M 432.0,144.0 L 432.0,162.0" style="stroke:black;fill:none;stroke-width:2.0;stroke-dasharray:-;stroke-linecap:round;stroke-linejoin:round;" /><path d="M 378.0,144.0 L 378.0,162.0" style="stroke:black;fill:none;stroke-width:2.0;stroke-dasharray:-;stroke-linecap:round;stroke-linejoin:round;" /><path d="M 432.0,54.0 L 432.0,36.0" style="stroke:black;fill:none;stroke-width:2.0;stroke-dasharray:-;stroke-linecap:round;stroke-linejoin:round;" /><path d="M 378.0,54.0 L 378.0,36.0" style="stroke:black;fill:none;stroke-width:2.0;stroke-dasharray:-;stroke-linecap:round;stroke-linejoin:round;" /><path d="M 432.0,36.0 L 432.0,21.599999999999998" style="stroke:black;fill:none;stroke-width:2.0;stroke-dasharray:-;stroke-linecap:round;stroke-linejoin:round;" /><path d="M 432.0,21.599999999999998 L 425.25,21.599999999999998" style="stroke:black;fill:none;stroke-width:2.0;stroke-dasharray:-;stroke-linecap:round;stroke-linejoin:round;" /><path d="M 432.0,21.599999999999998 L 438.75,21.599999999999998" style="stroke:black;fill:none;stroke-width:2.0;stroke-dasharray:-;stroke-linecap:round;stroke-linejoin:round;" /><path d="M 378.0,36.0 L 378.0,50.4 L 369.0,50.4 L 387.0,50.4 M 371.7,54.72 L 384.3,54.72 M 376.2,59.040000000000006 L 379.8,59.040000000000006" style="stroke:black;fill:none;stroke-width:2.0;stroke-dasharray:-;stroke-linecap:round;stroke-linejoin:round;" /><path d="M 234.0,-54.0 L 233.99999999999997,54.0 L 233.99999999999997,162.0" style="stroke:blue;fill:none;stroke-width:2.0;stroke-dasharray:-;stroke-linecap:round;stroke-linejoin:round;" /><path d="M 233.99999999999997,162.0 L 333.0,162.0 L 432.0,162.0" style="stroke:blue;fill:none;stroke-width:2.0;stroke-dasharray:-;stroke-linecap:round;stroke-linejoin:round;" /><path d="M 324.0,-108.0 L 324.0,27.0 L 323.99999999999994,162.0" style="stroke:green;fill:none;stroke-width:2.0;stroke-dasharray:-;stroke-linecap:round;stroke-linejoin:round;" /><path d="M 323.99999999999994,162.0 L 351.0,162.0 L 378.0,162.0" style="stroke:green;fill:none;stroke-width:2.0;stroke-dasharray:-;stroke-linecap:round;stroke-linejoin:round;" /><text x="84.60000000000001" y="-66.0" dominant-baseline="central" fill="black" font-size="12" font-family="sans" text-anchor="end"><tspan x="84.60000000000001" dy="12">SDA21</tspan></text><text x="84.60000000000001" y="-120.0" dominant-baseline="central" fill="black" font-size="12" font-family="sans" text-anchor="end"><tspan x="84.60000000000001" dy="12">SCL22</tspan></text><text x="48.6" y="-95.60000000000001" dominant-baseline="central" fill="black" font-size="11" font-family="sans" text-anchor="middle"><tspan x="48.6" dy="11">ESP32 S v1.1</tspan></text><text x="-18.0" y="-83.0" dominant-baseline="ideographic" fill="black" font-size="11" font-family="sans" text-anchor="middle"><tspan x="-18.0" dy="11">3.3V</tspan></text><text x="455.40000000000003" y="-65.0" dominant-baseline="central" fill="black" font-size="11" font-family="sans" text-anchor="start"><tspan x="455.40000000000003" dy="11">SSDA</tspan></text><text x="455.40000000000003" y="-119.0" dominant-baseline="central" fill="black" font-size="11" font-family="sans" text-anchor="start"><tspan x="455.40000000000003" dy="11">SSCL</tspan></text><text x="534.6" y="-65.0" dominant-baseline="central" fill="black" font-size="11" font-family="sans" text-anchor="end"><tspan x="534.6" dy="11">SVCC</tspan></text><text x="534.6" y="-119.0" dominant-baseline="central" fill="black" font-size="11" font-family="sans" text-anchor="end"><tspan x="534.6" dy="11">SGND</tspan></text><text x="498.59999999999997" y="-98.10000000000001" dominant-baseline="central" fill="black" font-size="9" font-family="sans" text-anchor="middle"><tspan x="498.59999999999997" dy="9">SCD30</tspan><tspan x="498.59999999999997" dy="9">(0x61) CO₂/T/H</tspan></text><text x="558.0" y="-83.0" dominant-baseline="ideographic" fill="black" font-size="11" font-family="sans" text-anchor="middle"><tspan x="558.0" dy="11">3.3V</tspan></text><text x="270.0" y="-65.6" dominant-baseline="ideographic" fill="blue" font-size="8" font-family="sans" text-anchor="middle"><tspan x="270.0" dy="8">SDA (GPIO21)</tspan></text><text x="270.0" y="-112.39999999999999" dominant-baseline="hanging" fill="green" font-size="8" font-family="sans" text-anchor="middle"><tspan x="270.0" dy="8">SCL (GPIO22)</tspan></text><text x="234.0" y="-155.6" dominant-baseline="ideographic" fill="black" font-size="8" font-family="sans" text-anchor="middle"><tspan x="234.0" dy="8">4.7kΩ</tspan></text><text x="234.0" y="-173.0" dominant-baseline="ideographic" fill="black" font-size="11" font-family="sans" text-anchor="middle"><tspan x="234.0" dy="11">3.3V</tspan></text><text x="324.0" y="-209.6" dominant-baseline="ideographic" fill="black" font-size="8" font-family="sans" text-anchor="middle"><tspan x="324.0" dy="8">4.7kΩ</tspan></text><text x="324.0" y="-227.0" dominant-baseline="ideographic" fill="black" font-size="11" font-family="sans" text-anchor="middle"><tspan x="324.0" dy="11">3.3V</tspan></text><text x="432.0" y="127.6" dominant-baseline="central" fill="black" font-size="11" font-family="sans" text-anchor="start"><tspan x="432.0" dy="11">BSDA</tspan></text><text x="378.0" y="127.6" dominant-baseline="central" fill="black" font-size="11" font-family="sans" text-anchor="start"><tspan x="378.0" dy="11">BSCL</tspan></text><text x="432.0" y="48.4" dominant-baseline="central" fill="black" font-size="11" font-family="sans" text-anchor="end"><tspan x="432.0" dy="11">BVCC</tspan></text><text x="378.0" y="48.4" dominant-baseline="central" fill="black" font-size="11" font-family="sans" text-anchor="end"><tspan x="378.0" dy="11">BGND</tspan></text><text x="401.40000000000003" y="81.89999999999999" dominant-baseline="central" fill="black" font-size="9" font-family="sans" text-anchor="middle"><tspan x="401.40000000000003" dy="9">BME280</tspan><tspan x="401.40000000000003" dy="9">(0x76) T/H/P</tspan></text><text x="432.0" y="7.0" dominant-baseline="ideographic" fill="black" font-size="11" font-family="sans" text-anchor="middle"><tspan x="432.0" dy="11">3.3V</tspan></text><text x="273.59999999999997" y="270.90000000000003" dominant-baseline="central" fill="gray" font-size="9" font-family="sans" text-anchor="middle"><tspan x="273.59999999999997" dy="9">Bus I2C compartido — Pull-ups 4.7kΩ externos</tspan><tspan x="273.59999999999997" dy="9">SCD30: pico 75mA — verificar regulador 3V3</tspan></text><circle cx="234.0" cy="-54.0" r="2.6999999999999997" style="stroke:black;fill:black;stroke-width:2.0;stroke-dasharray:-;" /><circle cx="324.0" cy="-108.0" r="2.6999999999999997" style="stroke:black;fill:black;stroke-width:2.0;stroke-dasharray:-;" /><circle cx="234.0" cy="-54.0" r="2.6999999999999997" style="stroke:black;fill:black;stroke-width:2.0;stroke-dasharray:-;" /><circle cx="324.0" cy="-108.0" r="2.6999999999999997" style="stroke:black;fill:black;stroke-width:2.0;stroke-dasharray:-;" /></svg>