<svg xmlns="http://www.w3.org/2000/svg" xmlns:xlink="http://www.w3.org/1999/xlink" xml:lang="en" height="464.6pt" width="608.432pt" viewBox="-34.216 -166.60000000000002 608.432 464.6"><path d="M 0.0,-0.0 L 90.0,-0.0 L 90.0,-162.0 L 0.0,-162.0 L 0.0,-0.0" style="stroke:black;fill:none;stroke-width:2.0;stroke-dasharray:-;stroke-linecap:round;stroke-linejoin:round;" /><path d="M 90.0,-54.0 L 108.0,-54.0" style="stroke:black;fill:none;stroke-width:2.0;stroke-dasharray:-;stroke-linecap:round;stroke-linejoin:round;" /><path d="M 90.0,-108.0 L 108.0,-108.0" style="stroke:black;fill:none;stroke-width:2.0;stroke-dasharray:-;stroke-linecap:round;stroke-linejoin:round;" /><path d="M -18.0,-54.0 L -18.0,-68.39999999999999" style="stroke:black;fill:none;stroke-width:2.0;stroke-dasharray:-;stroke-linecap:round;stroke-linejoin:round;" /><path d="M -18.0,-68.39999999999999 L -24.75,-68.39999999999999" style="stroke:black;fill:none;stroke-width:2.0;stroke-dasharray:-;stroke-linecap:round;stroke-linejoin:round;" /><path d="M -18.0,-68.39999999999999 L -11.25,-68.39999999999999" style="stroke:black;fill:none;stroke-width:2.0;stroke-dasharray:-;stroke-linecap:round;stroke-linejoin:round;" /><path d="M -18.0,-108.0 L -18.0,-93.60000000000001 L -27.0,-93.60000000000001 L -9.0,-93.60000000000001 M -24.3,-89.28 L -11.700000000000001,-89.28 M -19.8,-84.96 L -16.2,-84.96" style="stroke:black;fill:none;stroke-width:2.0;stroke-dasharray:-;stroke-linecap:round;stroke-linejoin:round;" /><path d="M 450.0,-0.0 L 540.0,-0.0 L 540.0,-162.0 L 450.0,-162.0 L 450.0,-0.0" style="stroke:black;fill:none;stroke-width:2.0;stroke-dasharray:-;stroke-linecap:round;stroke-linejoin:round;" /><path d="M 450.0,-54.0 L 432.0,-54.0" style="stroke:black;fill:none;stroke-width:2.0;stroke-dasharray:-;stroke-linecap:round;stroke-linejoin:round;" /><path d="M 450.0,-108.0 L 432.0,-108.0" style="stroke:black;fill:none;stroke-width:2.0;stroke-dasharray:-;stroke-linecap:round;stroke-linejoin:round;" /><path d="M 540.0,-54.0 L 558.0,-54.0" style="stroke:black;fill:none;stroke-width:2.0;stroke-dasharray:-;stroke-linecap:round;stroke-linejoin:round;" /><path d="M 540.0,-108.0 L 558.0,-108.0" style="stroke:black;fill:none;stroke-width:2.0;stroke-dasharray:-;stroke-linecap:round;stroke-linejoin:round;" /><path d="M 558.0,-54.0 L 558.0,-68.39999999999999" style="stroke:black;fill:none;stroke-width:2.0;stroke-dasharray:-;stroke-linecap:round;stroke-linejoin:round;" /><path d="M 558.0,-68.39999999999999 L 551.25,-68.39999999999999" style="stroke:black;fill:none;stroke-width:2.0;stroke-dasharray:-;stroke-linecap:round;stroke-linejoin:round;" /><path d="M 558.0,-68.39999999999999 L 564.75,-68.39999999999999" style="stroke:black;fill:none;stroke-width:2.0;stroke-dasharray:-;stroke-linecap:round;stroke-linejoin:round;" /><path d="M 558.0,-108.0 L 558.0,-93.60000000000001 L 549.0,-93.60000000000001 L 567.0,-93.60000000000001 M 551.6999999999999,-89.28 L 564.3000000000001,-89.28 M 556.1999999999999,-84.96 L 559.8000000000001,-84.96" style="stroke:black;fill:none;stroke-width:2.0;stroke-dasharray:-;stroke-linecap:round;stroke-linejoin:round;" /><path d="M 108.0,-54.0 L 270.0,-54.0 L 432.0,-54.0" style="stroke:blue;fill:none;stroke-width:2.0;stroke-dasharray:-;stroke-linecap:round;stroke-linejoin:round;" /><path d="M 108.0,-108.0 L 270.0,-108.0 L 432.0,-108.0" style="stroke:green;fill:none;stroke-width:2.0;stroke-dasharray:-;stroke-linecap:round;stroke-linejoin:round;" /><path d="M 450.0,216.0 L 540.0,216.0 L 540.0,54.0 L 450.0,54.0 L 450.0,216.0" style="stroke:black;fill:none;stroke-width:2.0;stroke-dasharray:-;stroke-linecap:round;stroke-linejoin:round;" /><path d="M 450.0,162.0 L 432.0,162.0" style="stroke:black;fill:none;stroke-width:2.0;stroke-dasharray:-;stroke-linecap:round;stroke-linejoin:round;" /><path d="M 450.0,108.0 L 432.0,108.0" style="stroke:black;fill:none;stroke-width:2.0;stroke-dasharray:-;stroke-linecap:round;stroke-linejoin:round;" /><path d="M 540.0,162.0 L 558.0,162.0" style="stroke:black;fill:none;stroke-width:2.0;stroke-dasharray:-;stroke-linecap:round;stroke-linejoin:round;" /><path d="M 540.0,108.0 L 558.0,108.0" style="stroke:black;fill:none;stroke-width:2.0;stroke-dasharray:-;stroke-linecap:round;stroke-linejoin:round;" /><path d="M 558.0,162.0 L 558.0,147.6" style="stroke:black;fill:none;stroke-width:2.0;stroke-dasharray:-;stroke-linecap:round;stroke-linejoin:round;" /><path d="M 558.0,147.6 L 551.25,147.6" style="stroke:black;fill:none;stroke-width:2.0;stroke-dasharray:-;stroke-linecap:round;stroke-linejoin:round;" /><path d="M 558.0,147.6 L 564.75,147.6" style="stroke:black;fill:none;stroke-width:2.0;stroke-dasharray:-;stroke-linecap:round;stroke-linejoin:round;" /><path d="M 558.0,108.0 L 558.0,122.39999999999999 L 549.0,122.39999999999999 L 567.0,122.39999999999999 M 551.6999999999999,126.72 L 564.3000000000001,126.72 M 556.1999999999999,131.04 L 559.8000000000001,131.04" style="stroke:black;fill:none;stroke-width:2.0;stroke-dasharray:-;stroke-linecap:round;stroke-linejoin:round;" /><path d="M 234.0,-54.0 L 233.99999999999997,54.0 L 233.99999999999997,162.0" style="stroke:blue;fill:none;stroke-width:2.0;stroke-dasharray:-;stroke-linecap:round;stroke-linejoin:round;" /><path d="M 233.99999999999997,162.0 L 333.0,162.0 L 432.0,162.0" style="stroke:blue;fill:none;stroke-width:2.0;stroke-dasharray:-;stroke-linecap:round;stroke-linejoin:round;" /><path d="M 324.0,-108.0 L 324.0,-0.0 L 323.99999999999994,108.0" style="stroke:green;fill:none;stroke-width:2.0;stroke-dasharray:-;stroke-linecap:round;stroke-linejoin:round;" /><path d="M 323.99999999999994,108.0 L 378.0,108.0 L 432.0,108.0" style="stroke:green;fill:none;stroke-width:2.0;stroke-dasharray:-;stroke-linecap:round;stroke-linejoin:round;" /><text x="84.60000000000001" y="-66.0" dominant-baseline="central" fill="black" font-size="12" font-family="sans" text-anchor="end"><tspan x="84.60000000000001" dy="12">SDA21</tspan></text><text x="84.60000000000001" y="-120.0" dominant-baseline="central" fill="black" font-size="12" font-family="sans" text-anchor="end"><tspan x="84.60000000000001" dy="12">SCL22</tspan></text><text x="48.6" y="-101.10000000000001" dominant-baseline="central" fill="black" font-size="11" font-family="sans" text-anchor="middle"><tspan x="48.6" dy="11">ESP32</tspan><tspan x="48.6" dy="11">DevKit V1</tspan></text><text x="-18.0" y="-83.0" dominant-baseline="ideographic" fill="black" font-size="11" font-family="sans" text-anchor="middle"><tspan x="-18.0" dy="11">3.3V</tspan></text><text x="455.40000000000003" y="-65.0" dominant-baseline="central" fill="black" font-size="11" font-family="sans" text-anchor="start"><tspan x="455.40000000000003" dy="11">SSDA</tspan></text><text x="455.40000000000003" y="-119.0" dominant-baseline="central" fill="black" font-size="11" font-family="sans" text-anchor="start"><tspan x="455.40000000000003" dy="11">SSCL</tspan></text><text x="534.6" y="-65.0" dominant-baseline="central" fill="black" font-size="11" font-family="sans" text-anchor="end"><tspan x="534.6" dy="11">SVCC</tspan></text><text x="534.6" y="-119.0" dominant-baseline="central" fill="black" font-size="11" font-family="sans" text-anchor="end"><tspan x="534.6" dy="11">SGND</tspan></text><text x="498.59999999999997" y="-98.10000000000001" dominant-baseline="central" fill="black" font-size="9" font-family="sans" text-anchor="middle"><tspan x="498.59999999999997" dy="9">SCD30</tspan><tspan x="498.59999999999997" dy="9">(0x61) CO₂/T/H</tspan></text><text x="558.0" y="-83.0" dominant-baseline="ideographic" fill="black" font-size="11" font-family="sans" text-anchor="middle"><tspan x="558.0" dy="11">3.3V</tspan></text><text x="270.0" y="-65.6" dominant-baseline="ideographic" fill="blue" font-size="8" font-family="sans" text-anchor="middle"><tspan x="270.0" dy="8">SDA (GPIO21)</tspan></text><text x="270.0" y="-112.39999999999999" dominant-baseline="hanging" fill="green" font-size="8" font-family="sans" text-anchor="middle"><tspan x="270.0" dy="8">SCL (GPIO22)</tspan></text><text x="455.40000000000003" y="151.0" dominant-baseline="central" fill="black" font-size="11" font-family="sans" text-anchor="start"><tspan x="455.40000000000003" dy="11">BSDA</tspan></text><text x="455.40000000000003" y="97.0" dominant-baseline="central" fill="black" font-size="11" font-family="sans" text-anchor="start"><tspan x="455.40000000000003" dy="11">BSCL</tspan></text><text x="534.6" y="151.0" dominant-baseline="central" fill="black" font-size="11" font-family="sans" text-anchor="end"><tspan x="534.6" dy="11">BVCC</tspan></text><text x="534.6" y="97.0" dominant-baseline="central" fill="black" font-size="11" font-family="sans" text-anchor="end"><tspan x="534.6" dy="11">BGND</tspan></text><text x="498.59999999999997" y="117.9" dominant-baseline="central" fill="black" font-size="9" font-family="sans" text-anchor="middle"><tspan x="498.59999999999997" dy="9">BME280</tspan><tspan x="498.59999999999997" dy="9">(0x76) T/H/P</tspan></text><text x="558.0" y="133.0" dominant-baseline="ideographic" fill="black" font-size="11" font-family="sans" text-anchor="middle"><tspan x="558.0" dy="11">3.3V</tspan></text><text x="273.59999999999997" y="270.90000000000003" dominant-baseline="central" fill="gray" font-size="9" font-family="sans" text-anchor="middle"><tspan x="273.59999999999997" dy="9">Bus I2C compartido (GPIO21/22)</tspan><tspan x="273.59999999999997" dy="9">SCD30: pico 75mA — verificar regulador 3V3</tspan></text><circle cx="234.0" cy="-54.0" r="2.6999999999999997" style="stroke:black;fill:black;stroke-width:2.0;stroke-dasharray:-;" /><circle cx="324.0" cy="-108.0" r="2.6999999999999997" style="stroke:black;fill:black;stroke-width:2.0;stroke-dasharray:-;" /></svg>